#!OML:ASF I:\golf\golf\golf 2\Subject 1\2002-09-07\Subject1.ASF
:FULLY-SPECIFIED
:DEGREES
178
root 1.00564 17.7137 -5.72238 24.2712 13.2475 -2.23905
lowerback 11.775 2.38669 -1.54324
upperback 8.58976 3.04447 6.73278
thorax 1.99974 1.3043 7.67786
lowerneck -16.3489 -4.25789 -2.053
upperneck 35.8195 -3.04913 -6.1845
head 15.2049 -2.29426 -2.73851
rclavicle 3.65764e-014 1.59028e-014
rhumerus -2.28753 8.34312 -74.7882
rradius 30.9992
rwrist -11.4944
rhand -24.098 12.626
rfingers 7.12502
rthumb 2.38269 -17.3405
lclavicle 3.65764e-014 1.59028e-014
lhumerus -32.4608 -33.1668 103.083
lradius 51.563
lwrist 21.6947
lhand -23.8907 30.0419
lfingers 7.12502
lthumb 2.58296 60.006
rfemur -52.3512 -1.21823 19.5571
rtibia 28.844
rfoot -5.27729 -2.39915
rtoes 5.48981
lfemur -33.5668 0.210538 -15.5208
ltibia 34.58
lfoot -22.8614 -10.6127
ltoes 1.42272
179
root 0.965678 17.7217 -5.66913 24.7541 13.8344 -1.94254
lowerback 12.0502 2.39521 -1.27295
upperback 8.74499 3.08028 6.75082
thorax 2.02277 1.33025 7.5327
lowerneck -16.3482 -4.44093 -2.10256
upperneck 35.4838 -3.34371 -6.08737
head 15.0366 -2.40801 -2.71974
rclavicle 3.81667e-014 3.18055e-015
rhumerus -1.63981 8.40013 -74.435
rradius 31.005
rwrist -11.7871
rhand -24.3153 12.7141
rfingers 7.12502
rthumb 2.17285 -17.2546
lclavicle 3.81667e-014 3.18055e-015
lhumerus -32.4201 -33.0025 103.032
lradius 52.1272
lwrist 20.8616
lhand -23.8998 30.9285
lfingers 7.12502
lthumb 2.57413 60.8928
rfemur -52.7029 -0.405493 18.5865
rtibia 29.0487
rfoot -4.50836 -3.86882
rtoes 7.15147
lfemur -33.8163 -0.229317 -15.4052
ltibia 34.2681
lfoot -22.7265 -10.8854
ltoes 1.7104
180
root 0.926556 17.7251 -5.61594 25.2219 14.4367 -1.65365
lowerback 12.3568 2.40263 -1.00393
upperback 8.96034 3.11471 6.82498
thorax 2.09211 1.35233 7.45124
lowerneck -16.4737 -4.64472 -2.1982
upperneck 35.1558 -3.64156 -6.00628
head 14.9054 -2.53252 -2.70581
rclavicle -5.08889e-014 -1.59028e-015
rhumerus -0.91012 8.39397 -74.017
rradius 31.0523
rwrist -12.0423
rhand -24.7665 12.8068
rfingers 7.12502
rthumb 1.7371 -17.1658
lclavicle -5.08889e-014 -1.59028e-015
lhumerus -32.2304 -32.8387 102.946
lradius 52.6537
lwrist 19.927
lhand -23.8283 31.4981
lfingers 7.12502
lthumb 2.64316 61.4614
rfemur -53.1116 -0.258667 18.1312
rtibia 29.2161
rfoot -3.82959 -4.8081
rtoes 6.69286
lfemur -34.0528 -0.59981 -15.2959
ltibia 33.9243
lfoot -22.405 -11.2906
ltoes 2.44052
181
root 0.885969 17.7218 -5.56107 25.6532 14.9564 -1.44021
lowerback 12.8421 2.42566 -0.697514
upperback 9.09775 3.18166 6.87116
thorax 1.98151 1.39831 7.30375
lowerneck -16.4863 -4.85768 -2.23517
upperneck 34.8285 -3.96852 -5.94529
head 14.7463 -2.66435 -2.71101
rclavicle 3.65764e-014 4.13472e-014
rhumerus -0.324966 8.43106 -73.7002
rradius 31.1572
rwrist -12.2175
rhand -25.0082 12.8136
rfingers 7.12502
rthumb 1.50368 -17.1608
lclavicle 3.65764e-014 4.13472e-014
lhumerus -32.2264 -32.6534 102.851
lradius 53.0085
lwrist 18.9234
lhand -23.9853 31.5329
lfingers 7.12502
lthumb 2.49158 61.4981
rfemur -53.5992 -0.938975 18.4578
rtibia 29.4256
rfoot -3.30566 -4.83097
rtoes 5.33643
lfemur -34.2094 -0.863592 -15.1435
ltibia 33.6004
lfoot -22.3431 -11.4465
ltoes 2.48383
182
root 0.843818 17.7184 -5.50593 26.1198 15.5053 -1.3743
lowerback 13.3214 2.45603 -0.252482
upperback 9.18918 3.27707 6.9598
thorax 1.82765 1.4646 7.11683
lowerneck -16.4296 -5.06912 -2.32944
upperneck 34.4174 -4.29796 -5.83115
head 14.5391 -2.79812 -2.67798
rclavicle 2.38542e-014 -3.33958e-014
rhumerus 0.184281 8.49377 -73.3698
rradius 31.3083
rwrist -12.3581
rhand -24.9966 12.7867
rfingers 7.12502
rthumb 1.51485 -17.1877
lclavicle 2.38542e-014 -3.33958e-014
lhumerus -32.2034 -32.5149 102.802
lradius 53.2275
lwrist 17.9066
lhand -23.9979 31.765
lfingers 7.12502
lthumb 2.47939 61.7303
rfemur -54.1611 -1.34731 18.7772
rtibia 29.729
rfoot -3.03931 -5.2292
rtoes 4.49551
lfemur -34.4393 -0.985263 -14.8501
ltibia 33.3359
lfoot -22.5631 -11.495
ltoes 1.76352
183
root 0.799392 17.7162 -5.45419 26.5779 16.2134 -1.30741
lowerback 13.8851 2.45008 0.280913
upperback 9.30706 3.34238 7.10014
thorax 1.66579 1.51771 6.9373
lowerneck -16.5148 -5.27148 -2.49965
upperneck 34.0076 -4.61634 -5.62186
head 14.3749 -2.92524 -2.59812
rclavicle -6.20208e-014 -2.22639e-014
rhumerus 0.776088 8.37508 -73.003
rradius 31.4801
rwrist -12.3946
rhand -25.0087 12.8106
rfingers 7.12502
rthumb 1.50317 -17.1639
lclavicle -6.20208e-014 -2.22639e-014
lhumerus -31.9915 -32.4645 102.744
lradius 53.4103
lwrist 17.1103
lhand -24.0179 31.7555
lfingers 7.12502
lthumb 2.46011 61.7211
rfemur -54.6942 -1.60064 18.9657
rtibia 30.1358
rfoot -2.95034 -5.88539
rtoes 3.78211
lfemur -34.8219 -1.20468 -14.4881
ltibia 33.1578
lfoot -22.6141 -11.6891
ltoes 1.19738
184
root 0.751175 17.7095 -5.40422 27.0327 16.8987 -1.15421
lowerback 14.5263 2.42523 0.702703
upperback 9.43476 3.38034 7.22089
thorax 1.47468 1.55282 6.80255
lowerneck -16.6647 -5.44783 -2.54365
upperneck 33.6632 -4.88379 -5.54999
head 14.2493 -3.034 -2.59367
rclavicle 1.74931e-014 4.92986e-014
rhumerus 1.50788 8.33868 -72.5856
rradius 31.6037
rwrist -12.5891
rhand -24.9338 12.836
rfingers 7.12502
rthumb 1.57552 -17.138
lclavicle 1.74931e-014 4.92986e-014
lhumerus -31.7656 -32.4285 102.619
lradius 53.7032
lwrist 16.4469
lhand -24.0168 31.6876
lfingers 7.12502
lthumb 2.46109 61.6531
rfemur -55.2206 -1.94258 19.1548
rtibia 30.5951
rfoot -2.86862 -6.1255
rtoes 3.83431
lfemur -35.249 -1.56908 -14.173
ltibia 33.0189
lfoot -22.5797 -11.7112
ltoes 0.35959
185
root 0.701854 17.6953 -5.35183 27.5664 17.4659 -1.01607
lowerback 15.04 2.41817 0.929627
upperback 9.52726 3.42189 7.40551
thorax 1.30142 1.5799 6.85264
lowerneck -16.6494 -5.60357 -2.60087
upperneck 33.264 -5.0752 -5.62031
head 14.0624 -3.13136 -2.62219
rclavicle 8.11041e-014 1.00187e-013
rhumerus 2.38114 8.8617 -71.8612
rradius 31.6378
rwrist -13.2637
rhand -24.661 12.8894
rfingers 7.12502
rthumb 1.83896 -17.0824
lclavicle 8.11041e-014 1.00187e-013
lhumerus -31.6375 -32.2335 102.625
lradius 53.9658
lwrist 15.9068
lhand -24.0461 31.7358
lfingers 7.12502
lthumb 2.4328 61.7016
rfemur -55.8853 -2.36616 19.5038
rtibia 31.0947
rfoot -2.69548 -5.85164
rtoes 4.83124
lfemur -35.7236 -1.7922 -13.8965
ltibia 32.8986
lfoot -22.5804 -11.6437
ltoes -0.612878
186
root 0.652043 17.6884 -5.29674 28.1505 17.9567 -0.802227
lowerback 15.5664 2.44642 1.02844
upperback 9.58192 3.49971 7.58229
thorax 1.07113 1.6211 6.9606
lowerneck -16.4134 -5.74924 -2.70324
upperneck 32.6409 -5.26852 -5.65064
head 13.7346 -3.23031 -2.60657
rclavicle 6.36111e-015 -3.02153e-014
rhumerus 2.92008 8.89528 -71.4514
rradius 31.8254
rwrist -13.257
rhand -24.4453 13.0495
rfingers 7.12502
rthumb 2.04732 -16.9204
lclavicle 6.36111e-015 -3.02153e-014
lhumerus -31.6066 -32.044 102.748
lradius 54.1711
lwrist 15.4735
lhand -24.1841 31.5909
lfingers 7.12502
lthumb 2.29959 61.5583
rfemur -56.5918 -2.90265 19.9166
rtibia 31.5946
rfoot -2.42852 -5.3594
rtoes 6.03746
lfemur -36.2031 -1.88136 -13.7358
ltibia 32.7848
lfoot -22.4859 -11.8898
ltoes -0.659362
187
root 0.60066 17.6861 -5.24095 28.7418 18.3779 -0.485957
lowerback 16.1238 2.50123 1.03077
upperback 9.69489 3.5994 7.7425
thorax 0.881334 1.6685 7.1039
lowerneck -16.2308 -5.9038 -2.89616
upperneck 31.943 -5.47464 -5.60057
head 13.3996 -3.33525 -2.54516
rclavicle 9.54166e-015 1.59028e-015
rhumerus 3.47706 8.78368 -71.0164
rradius 32.2301
rwrist -13.1931
rhand -24.3304 12.9444
rfingers 7.12502
rthumb 2.15822 -17.0244
lclavicle 9.54166e-015 1.59028e-015
lhumerus -31.5034 -32.0331 102.884
lradius 54.4088
lwrist 15.1659
lhand -24.5535 31.1982
lfingers 7.12502
lthumb 1.94281 61.1691
rfemur -57.2597 -3.34575 20.1557
rtibia 32.0521
rfoot -2.26587 -4.9963
rtoes 7.7958
lfemur -36.6554 -2.04277 -13.6439
ltibia 32.6613
lfoot -22.2533 -12.3274
ltoes 0.0847466
188
root 0.548917 17.6841 -5.1861 29.4483 18.836 -0.162641
lowerback 16.5229 2.50882 1.03629
upperback 9.80524 3.63216 7.92649
thorax 0.77929 1.68117 7.28849
lowerneck -16.2761 -6.03742 -3.1555
upperneck 31.5782 -5.61804 -5.52019
head 13.2668 -3.41568 -2.47765
rclavicle -3.18055e-015 -4.92986e-014
rhumerus 4.19992 8.72681 -70.565
rradius 32.4757
rwrist -13.2058
rhand -24.1756 12.7632
rfingers 7.12502
rthumb 2.30774 -17.2041
lclavicle -3.18055e-015 -4.92986e-014
lhumerus -31.3937 -31.9368 103.038
lradius 54.7511
lwrist 15.0171
lhand -25.0115 31.3388
lfingers 7.12502
lthumb 1.50042 61.3133
rfemur -58.0411 -3.79956 20.4015
rtibia 32.4394
rfoot -2.13054 -4.78371
rtoes 9.50867
lfemur -37.2299 -2.28296 -13.4987
ltibia 32.4876
lfoot -21.9471 -12.7337
ltoes 0.521363
189
root 0.498184 17.6812 -5.12862 30.1913 19.2613 0.064555
lowerback 16.8308 2.55952 1.20773
upperback 9.91064 3.73526 8.02145
thorax 0.725415 1.73646 7.26988
lowerneck -16.4311 -6.18495 -3.14913
upperneck 31.3094 -5.85269 -5.44841
head 13.1832 -3.50599 -2.48098
rclavicle 3.18055e-015 3.81667e-014
rhumerus 5.16352 8.67736 -70.1203
rradius 32.2363
rwrist -13.4064
rhand -24.1185 12.9123
rfingers 7.12502
rthumb 2.36294 -17.0544
lclavicle 3.18055e-015 3.81667e-014
lhumerus -31.4181 -31.9729 103.103
lradius 55.2712
lwrist 14.912
lhand -25.3219 32.0248
lfingers 7.12502
lthumb 1.20065 62.0012
rfemur -58.8892 -4.23122 20.7985
rtibia 32.7941
rfoot -1.83385 -4.69354
rtoes 9.31359
lfemur -37.8443 -2.49881 -13.2611
ltibia 32.2897
lfoot -21.9467 -12.7123
ltoes -0.355986
190
root 0.448969 17.6787 -5.06857 30.7729 19.6602 0.223132
lowerback 17.2905 2.68852 1.54855
upperback 10.0693 3.96558 8.04482
thorax 0.651141 1.86239 7.04799
lowerneck -16.488 -6.4025 -2.92186
upperneck 30.8014 -6.27716 -5.34852
head 12.9641 -3.65127 -2.52334
rclavicle -2.54444e-014 -5.88403e-014
rhumerus 6.12187 8.42073 -69.654
rradius 32.0104
rwrist -13.593
rhand -24.3865 13.181
rfingers 7.12502
rthumb 2.10407 -16.7884
lclavicle -2.54444e-014 -5.88403e-014
lhumerus -31.5366 -32.5312 103.131
lradius 55.8808
lwrist 14.9215
lhand -25.6793 32.4485
lfingers 7.12502
lthumb 0.855529 62.4265
rfemur -59.5515 -4.58403 21.2324
rtibia 33.152
rfoot -1.61718 -4.68788
rtoes 8.51411
lfemur -38.2864 -2.65225 -12.9872
ltibia 32.0781
lfoot -22.0389 -12.573
ltoes -1.50804
191
root 0.398032 17.6791 -5.00862 31.3331 20.1569 0.460997
lowerback 17.8098 2.7421 1.80281
upperback 10.19 4.09749 8.10504
thorax 0.511934 1.93644 6.92943
lowerneck -16.262 -6.57239 -2.71397
upperneck 30.1503 -6.64782 -5.22506
head 12.633 -3.77493 -2.52522
rclavicle 3.81667e-014 2.70347e-014
rhumerus 7.00301 8.15621 -69.2611
rradius 31.8818
rwrist -13.6985
rhand -24.457 13.2814
rfingers 7.12502
rthumb 2.03604 -16.6886
lclavicle 3.81667e-014 2.70347e-014
lhumerus -31.6994 -33.0344 103.237
lradius 56.4008
lwrist 14.9433
lhand -26.1849 32.4393
lfingers 7.12502
lthumb 0.367126 62.4187
rfemur -60.1619 -5.1183 21.7151
rtibia 33.5226
rfoot -1.73328 -4.50784
rtoes 9.08425
lfemur -38.6872 -2.71787 -12.795
ltibia 31.8495
lfoot -21.9618 -12.784
ltoes -2.16075
192
root 0.343959 17.6775 -4.9481 32.0061 20.6878 0.787421
lowerback 18.2596 2.68717 1.8689
upperback 10.2733 4.06546 8.19868
thorax 0.373553 1.9217 6.98775
lowerneck -15.8998 -6.63869 -2.55331
upperneck 29.3676 -6.8439 -5.16363
head 12.2306 -3.83951 -2.5046
rclavicle 2.22639e-014 1.90833e-014
rhumerus 8.02108 8.06812 -68.959
rradius 31.6572
rwrist -13.598
rhand -24.1322 13.1106
rfingers 7.12502
rthumb 2.34964 -16.8562
lclavicle 2.22639e-014 1.90833e-014
lhumerus -31.8118 -33.1206 103.328
lradius 56.8268
lwrist 14.8053
lhand -26.6598 32.3081
lfingers 7.12502
lthumb -0.0915133 62.2878
rfemur -60.8194 -5.37664 21.861
rtibia 33.8865
rfoot -1.95931 -4.65415
rtoes 9.58728
lfemur -39.1821 -2.82175 -12.6463
ltibia 31.6387
lfoot -21.8628 -12.9999
ltoes -2.23168
